<svg xmlns="http://www.w3.org/2000/svg" width="56" height="78" fill="none"><g clip-path="url(#a)"><path fill="#0D9488" d="M10.09 21.833h35.82L56 77.999H0l10.09-56.166Z"/><path fill="#fff" d="M17.92 33.629a3.365 3.365 0 0 0 3.36-3.37 3.365 3.365 0 0 0-3.36-3.37 3.365 3.365 0 0 0-3.36 3.37 3.365 3.365 0 0 0 3.36 3.37ZM38.08 33.629a3.365 3.365 0 0 0 3.36-3.37 3.365 3.365 0 0 0-3.36-3.37 3.365 3.365 0 0 0-3.36 3.37 3.365 3.365 0 0 0 3.36 3.37Z"/><path stroke="#272727" stroke-width="4" d="M18.269 30.259S12.99 4.524 27.872 4.422C42.79 4.32 37.859 30.26 37.859 30.26"/><path fill="#fff" fill-rule="evenodd" d="M41.44 52.428c0-.332-.473-.36-.568-.041-1.665 5.548-6.798 9.59-12.872 9.59s-11.207-4.042-12.872-9.59c-.095-.318-.568-.29-.568.041 0 7.445 6.017 13.48 13.44 13.48 7.422 0 13.44-6.035 13.44-13.48Z" clip-rule="evenodd"/></g><defs><clipPath id="a"><path fill="#fff" d="M0 0h56v78H0z"/></clipPath></defs></svg>